<svg viewBox="0 0 400 400" xmlns="http://www.w3.org/2000/svg" height="400" width="400"><path d="M85.962 168.826a3.318 3.318 0 0 1 0.472 3.146c-0.4 1.022 -1.258 1.256 -1.926 0.55a3.216 3.216 0 0 1 -0.472 -3.146c0.408 -0.992 1.286 -1.248 1.926 -0.55Z" fill="#1c2733" stroke-width="2"></path><path d="M101.212 168.906a3.184 3.184 0 0 1 0.158 3.144c-0.52 0.978 -1.376 1.14 -1.966 0.354a3.23 3.23 0 0 1 -0.156 -3.146c0.486 -0.934 1.384 -1.106 1.964 -0.352Z" fill="#1c2733" stroke-width="2"></path><path d="M102.274 160.532c0.124 0.352 0.038 0.588 -0.118 0.668 -0.672 0.346 -1.926 0 -2.674 -0.038a13.532 13.532 0 0 0 -3.066 0.2c-0.666 0.124 -2.238 1.178 -2.6 0.158 -0.546 -1.574 2.044 -2.91 3.184 -3.066 1.578 -0.122 4.674 0.378 5.274 2.078Z" fill="#1c2733" stroke-width="2"></path><path d="M88.28 161.87c1.046 1.682 -3.038 0.4 -5 0.314a7.086 7.086 0 0 0 -4.088 1.454c-1.314 0.73 -1.4 -2.016 1.102 -3.538a5.588 5.588 0 0 1 4.52 -0.432 6.436 6.436 0 0 1 3.466 2.202Z" fill="#1c2733" stroke-width="2"></path><path d="M52.826 267.132c1.248 -10.436 3.8 29.82 2.4 41.548 -1.244 10.412 -3.806 -29.802 -2.4 -41.548Z" fill="#1c2733" stroke-width="2"></path><path d="M103.964 250.742a1.864 1.864 0 0 0 -0.314 -1.848c-2.182 -2.616 -7.746 -10.62 -9.63 -10.298 -2.242 0.384 -7.282 8.528 -7.822 10.652 -0.56 2.2 4.962 9.844 6.682 10.574a15.324 15.324 0 0 0 5.306 0.2 3.702 3.702 0 0 0 3.106 -2.318Z" fill="#ffb306" stroke-width="2"></path><path d="m104.356 269.452 -4.558 -7a50.51 50.51 0 0 0 -6.88 0.236c-0.118 0.274 -2.83 6.8 -2.83 6.8l8.726 21.344Z" fill="#ffb306" stroke-width="2"></path><path d="M128.57 223.07c0.4 3.518 5.906 15.864 6.014 35.062 0 0.7 -0.086 0.492 -5.62 0.864 -1.18 0.08 -3.134 -0.2 -3.578 1.258 -0.458 1.498 1.014 3.188 1.652 4.442 0.558 1.098 -0.224 -0.45 3.498 7.114 0.138 0.284 0.088 0.344 -0.08 0.512 -1.2 1.064 -22.704 19.878 -23.15 21.776 1.574 -0.19 17.362 -13.636 24.252 -19.34a4.504 4.504 0 0 0 1.532 -1.8c0.564 -1.568 -0.62 -3.226 -1.258 -4.6 -1 -2.168 -2.082 -4.364 -3.144 -6.564l2.24 -0.158c1.962 -0.118 5.216 0.2 6.132 -2.122 1.164 -2.948 -2.034 -27.568 -8.49 -36.444Z" fill="#1c2733" stroke-width="2"></path><path d="M83.682 289.262a78.444 78.444 0 0 0 -16.942 -12.062c1.416 -2.948 2.87 -5.896 4.284 -8.884a2.668 2.668 0 0 0 -1.454 -3.38c-16.338 -6.346 -15.066 -5.65 -15.722 -6.054 -0.584 -0.358 -0.872 -0.786 -0.512 -2a101.66 101.66 0 0 0 4 -17.296c1.294 -10.14 -2.8 6.516 -6.132 16 -1.97 5.6 1.416 5.724 17.138 11.714 0.078 0.04 0.078 0.2 0 0.314 0 0 -3.044 6.382 -4.048 8.726a2.232 2.232 0 0 0 0.078 1.8 4.894 4.894 0 0 0 2.162 1.574c14.232 7.786 15.848 10.136 18.356 11a4.882 4.882 0 0 0 -1.208 -1.452Z" fill="#1c2733" stroke-width="2"></path><path d="M144.844 264.028c1.434 -9.42 3.388 27.144 1.846 37.262 -1.434 9.42 -3.388 -27.144 -1.846 -37.262Z" fill="#1c2733" stroke-width="2"></path><path d="M93.468 167.294c1.176 -2.706 4.308 7.948 3.106 10.8 -1.174 2.79 -4.31 -8.024 -3.106 -10.8Z" fill="#1c2733" stroke-width="2"></path><path d="M219.998 278.886a7.664 9.002 0 1 0 15.328 0 7.664 9.002 0 1 0 -15.328 0Z" fill="#1c2733" stroke-width="2"></path><path d="M379 158.8c-1.296 -0.282 -5.7 -0.904 -11.6 -1.612 0.4 -6.286 0.638 -14.338 -2.868 -19.536 -5.27 -7.81 -19 -4.82 -21.188 9.826a49.276 49.276 0 0 0 -0.432 7.4 261.24 261.24 0 0 0 -10.338 -0.51 3.152 3.152 0 0 0 -3.222 3.026c-0.834 15.926 -3.908 31.682 -4.874 47.64 -0.308 5.072 -1.61 9.936 4.284 11.87 15.022 4.932 29.4 12.6 48.072 16.628 3.498 0.752 13.172 -3.42 13.168 -6.6 -0.022 -20.41 -5.696 -66.976 -11.002 -68.132Zm-35.46 14.546c-1.22 0 -2.162 -1.492 -2.162 -3.34s0.982 -3.342 2.162 -3.342 2.142 1.494 2.162 3.342 -0.944 3.34 -2.162 3.34Zm2.712 -18.4c0.42 -6.616 1.276 -14.376 7.624 -16.942 4.438 -1.8 7.742 0.974 9 5.07a112.966 112.966 0 0 1 1.336 13.758c-18.178 -2.05 -17.96 -1.432 -17.96 -1.88Zm17.648 21.736c-1.218 0 -2.162 -1.494 -2.162 -3.342s0.984 -3.34 2.162 -3.34 2.162 1.494 2.162 3.34 -0.982 3.348 -2.162 3.348Zm13.562 29.834c-0.644 5.876 -1.8 17.362 -3.618 11.832 -1.988 -6.076 -0.698 -19.11 -0.51 -27.516 0.176 -7.908 -0.1 -7.6 0.04 -11.478 0.078 -2.2 0.668 -2.712 1.846 -0.706a29.852 29.852 0 0 1 2.8 11.438 92.582 92.582 0 0 1 -0.558 16.436Z" fill="#ffb306" stroke-width="2"></path><path d="M155.534 189.62a166.008 166.008 0 0 1 -1.178 6.4 3.076 3.076 0 0 0 2.948 -3.812 3.2 3.2 0 0 0 -1.77 -2.588Z" fill="#ffb306" stroke-width="2"></path><path d="M153.648 186.632c0.2 -1.1 0.354 -2.162 0.55 -3.262a1.972 1.972 0 0 0 -1.454 0.512c-1.944 1.984 -0.314 2.518 0.904 2.75Z" fill="#ffb306" stroke-width="2"></path><path d="M146.612 173.2s-15.33 7.272 -10.77 22.09 27.428 17.016 33.528 5.7c6.126 -11.374 0.43 -39.002 -22.758 -27.79Zm12.028 23.142a5.69 5.69 0 0 1 -4.8 2.28c-0.4 1.768 -0.842 3.504 -1.376 5.226 -0.452 1.462 -2.74 0.83 -2.28 -0.628 0.484 -1.53 0.904 -3.144 1.258 -4.716a11.256 11.256 0 0 1 -1.14 -0.2A8.49 8.49 0 0 1 143.2 192.6a1.182 1.182 0 0 1 2.28 -0.63c0.6 2.2 3.656 3.734 6.486 4.088 0.472 -2.318 0.904 -4.678 1.296 -7.036A5.5 5.5 0 0 1 150 187.576c-2.076 -2.3 0.126 -6.542 4.678 -6.4 0.432 -2.318 0.962 -4.6 1.572 -6.838a1.182 1.182 0 0 1 2.28 0.628c-0.6 2.158 -1.1 4.364 -1.534 6.6 0.67 0.2 1.296 0.4 1.926 0.628 1.412 0.52 0.83 2.822 -0.628 2.28 -0.432 -0.16 -1.062 -0.432 -1.73 -0.628l-0.6 3.302a5.258 5.258 0 0 1 2.2 1.178 6.68 6.68 0 0 1 0.476 8.016Z" fill="#ffb306" stroke-width="2"></path><path d="M339.8 269.452c-1.374 -12.854 -21.974 -32.152 -34.944 -9.472 0 0 -8.64 14.926 3.654 24.4s32.672 -2.036 31.29 -14.928Zm-9.474 -11.084c-2.524 7.674 -5.12 15.326 -7.626 23.034a2.4 2.4 0 0 1 -3.498 1.414 42.136 42.136 0 0 1 -8.686 -7.508c-1.966 -2.358 1.424 -5.746 3.38 -3.38a32.32 32.32 0 0 0 5.306 5c2.2 -6.6 4.452 -13.19 6.564 -19.81 0.932 -2.918 5.522 -1.656 4.566 1.25Z" fill="#ffb306" stroke-width="2"></path><path d="M288.824 105.15c-3.012 -5.686 -17.338 -6.67 -23.034 -7.98 -9.988 -2.296 -58.844 -12.2 -74.29 -13.2a8.42 8.42 0 0 0 -6.1 3.138c-2.736 2.924 -2.656 7.388 -2.83 11.124 -0.292 6.214 0.018 86.632 0.156 94.65 0.036 2 2.32 2.4 2.36 0 0.35 -20.94 -0.6 -88.06 0.51 -99.722a5.6 5.6 0 0 1 1.888 -4.126 7 7 0 0 1 5.226 -0.6c1.454 0.2 18.2 2 18.2 2.752v3.772a1.186 1.186 0 0 0 0.944 1.18c6.842 1.48 39.38 8.476 48.11 10.062a1.8 1.8 0 0 0 2.124 -1.768V101.18c0 0.51 15.72 3.464 16.902 3.734 3.338 0.762 4.556 2.712 4.716 6.052 0.616 12.776 1 25.432 0.826 38.246 -0.67 46.382 -1.888 151.6 -2.24 157.818 -0.158 2.8 -0.986 6.28 -3.734 6.76 -2.032 0.356 4.822 2 -88.166 -31.642a8.79 8.79 0 0 1 -4.4 -2.672c-2.484 -3.454 0.706 -9.16 -2.242 -12.226 -1.06 4.954 -1.786 10.988 1.966 14.348 2.296 2.056 1.824 1.554 85.336 32.506 4.36 1.618 9.522 3.16 13.364 0.552 3.508 -2.384 4.222 -7.2 4.48 -11.44 1.514 -24.874 -0.118 -50.116 0.118 -75.076s1.136 -91.9 1.258 -100.428c0.096 -6.21 1.668 -16.68 -1.448 -22.562Z" fill="#1c2733" stroke-width="2"></path><path d="M98.5 184.668c0.7 -1.93 -3.096 3.956 -8.294 -0.904 -0.466 -0.438 -2.548 0.114 -1.964 1.65 0.596 1.57 8.07 5.296 10.258 -0.746Z" fill="#1c2733" stroke-width="2"></path><path d="M245.98 192.6c-5.2 1.51 12.8 3.6 18.906 -4.168 1.776 -2.26 1.18 -4.324 0.708 -4.324 -0.27 0 -0.418 0.508 -0.55 0.708a8.114 8.114 0 0 1 -3.616 3.578c-5.672 3.206 -13.254 3.576 -15.448 4.206Z" fill="#1c2733" stroke-width="2"></path><path d="M247.276 200.312c0 1.06 10.182 2 16.824 -2.084a8.982 8.982 0 0 0 4.166 -4.756 4.758 4.758 0 0 0 0.118 -1.218c-0.038 -0.668 -0.314 -0.984 -0.472 -0.984 -0.354 0 -0.666 1.08 -1.1 1.652 -4.69 6.174 -19.536 5.992 -19.536 7.39Z" fill="#1c2733" stroke-width="2"></path><path d="M251.718 205.46c-5.944 1.764 16.898 3.728 19.968 -6.288a4.858 4.858 0 0 0 0.118 -1.22c-0.04 -0.668 -0.314 -0.982 -0.472 -0.982 -0.6 0 -0.48 2.326 -4.52 4.482 -6.212 2.9 -12.412 3.214 -15.094 4.008Z" fill="#1c2733" stroke-width="2"></path><path d="M272.63 206.326a18 18 0 0 1 -4.718 4.2 25.564 25.564 0 0 1 -13.954 4.244 39.02 39.02 0 0 1 -9.276 -2.28c-2.494 2.496 -6.79 4.466 -11.91 7.43 -0.472 0.272 -0.904 0.51 -1.336 0.746l-4.56 -21.618a33.012 33.012 0 0 0 7.272 -5.306c0.282 2.072 1.434 4.062 1.612 1.964a12.862 12.862 0 0 1 12.774 -13.364c1.258 -0.122 1.578 -0.442 0.276 -1.022 -5.144 -2.294 -14.74 2.118 -14.74 11.36 -1.684 0 -6.494 2.764 -7.94 3.656a2.184 2.184 0 0 0 -2.6 -0.866c-1.756 0.776 -6.168 0.708 -5.66 3.616 5.626 32.27 5.08 30.014 5.384 29.952a10.986 10.986 0 0 1 -0.314 6.564c-0.112 0.318 -0.2 0.384 -0.668 0.748 -11.542 9.044 -22.526 15 -46.854 18.6 -8.044 1.186 -16.552 1.468 -20.126 2.28a7.9 7.9 0 0 0 2.87 0.472c22.498 0.918 46.586 -3.6 63.8 -18.278 3.708 -3.164 4.182 -5.768 2.79 -10.888 -0.042 -0.156 5.228 -1.494 5.582 -1.69 1.73 -0.748 1.768 -2.634 1.414 -4.2l-0.038 -0.276c16.962 -6.91 10.87 -7.576 16.234 -6.014 12.736 3.714 25.526 -5.732 24.644 -10.14 0.08 0.03 0.08 0.07 0.042 0.11Zm-43.474 19.024a40.058 40.058 0 0 0 -4.56 1.296c-5.064 -29.238 -4.956 -28.182 -4.756 -28.182l4.36 -1.264c0.494 0 0.054 -2.562 5.818 25.824 0.46 2.254 -0.302 2.14 -0.862 2.326Z" fill="#1c2733" stroke-width="2"></path><path d="M207.262 203.456c5.274 -2.502 5.782 -3.096 0.078 -1.14 -24.046 8.25 -36.882 26.084 -74.328 12.932 -2.674 -0.94 -5.184 -2.214 -7.784 -3.262a40.54 40.54 0 0 0 -23.976 -1.77c-1.576 -2.642 -2.62 -16.266 -3.38 -10.18a34.106 34.106 0 0 0 0.51 9.04 5.586 5.586 0 0 0 1.022 2.83c1.652 1.882 2.958 -0.038 10.614 -0.038 -5.154 6.42 -12.8 11.16 -17.8 18.042a3.464 3.464 0 0 0 -1.652 -1.416 143.862 143.862 0 0 1 -21.146 -11.044c0.2 0.126 5.686 -0.8 5.778 -0.826 2.222 -0.85 1.218 -3.456 0.864 -5.582a8100.968 8100.968 0 0 1 -4.088 -25.55 2.696 2.696 0 0 0 -2.712 -2.75 9.762 9.762 0 0 1 -5.582 -2.124 6.054 6.054 0 0 1 -1.572 -4.638 7.896 7.896 0 0 1 0.6 -3.42 1.542 1.542 0 0 0 0.668 -0.706c0.818 -1.358 3.97 -0.786 8.648 2s0.51 -19.104 0.51 -19.104 8.216 -1.412 10.968 -1.492c10.6 -0.314 23.164 2.6 25.902 1.69a8.966 8.966 0 0 0 3.852 -3.734 16.286 16.286 0 0 0 2.91 -7.036c0.902 -7.564 -5.624 -15.708 -17.69 -16.51 -9.982 -0.664 -14.474 4.438 -20.124 12.972 -7 10.578 -7.172 10.918 -8.018 11.438 -0.782 0.478 -2.712 -1.056 -3.618 -1.062 -5.974 -0.038 -5.41 7.154 -5.462 11.086a53.684 53.684 0 0 0 0.51 9 7.722 7.722 0 0 0 -1.572 4.6 7.95 7.95 0 0 0 1.572 6.21 10.75 10.75 0 0 0 6.368 3.262c0.552 0.11 1.416 0.2 1.218 0.2 0.652 0.652 -1.872 -5.4 4.8 29.048A67.244 67.244 0 0 0 56.914 218a66.952 66.952 0 0 0 -24.882 13.56 65.81 65.81 0 0 0 -20.518 34.2c-3.324 14.828 -0.844 29.154 4.638 38.678a49.084 49.084 0 0 0 -1.69 -7.076 63.082 63.082 0 0 1 0.472 -34.668 67.692 67.692 0 0 1 31.564 -38.2 72.2 72.2 0 0 1 9.944 -4.2c2.554 5.66 6.546 13.826 11.046 23.072 17.666 36.308 19.734 46.812 26.256 55.856a11.264 11.264 0 0 0 2.672 3.026c0.5 0 -2.388 -3.758 -6.092 -12.932 -2.718 -6.732 -6.232 -16.782 -12.97 -31.366 4.46 -5.12 11.33 -19.37 14.818 -24.332 0.278 -0.554 -0.6 -0.16 5.856 4.324 3.59 2.494 2.646 2 6.6 4.874a15.828 15.828 0 0 1 5.974 6.642c-1.966 16.98 -4.178 41.362 -5.778 47.758a5.696 5.696 0 0 0 -0.274 1.14c0.038 0.118 0.28 -0.074 0.628 -0.628 4.976 -7.91 10.506 -70.36 12.068 -85.492 5.464 0.682 5.1 1.106 10.14 3.184a119.22 119.22 0 0 0 12.226 4.558c30.446 8.806 44.21 -5.404 67.65 -16.522Zm-116.78 -65.486c3.16 -4.118 10.088 -7.538 14.858 -4.638a6.278 6.278 0 0 1 2.948 3.852c0.508 2.47 -1.03 3.782 -1.69 3.342 -0.628 -0.418 -0.294 -2.424 -2.752 -3.616 -4.554 -2.212 -8.572 2.248 -12.854 2.83 -1.488 0.202 -1.42 -0.584 -0.51 -1.77Zm0 94.612c-3.744 5.372 -9.53 17.536 -14.15 23.466 -5.188 -11.268 -12.6 -25.4 -18.632 -36.28 2.258 -0.832 1.816 -0.73 8.726 -1.848a160.534 160.534 0 0 0 23.308 12.344 1.568 1.568 0 0 1 0.748 2.318Zm20.4 13.8a16.838 16.838 0 0 0 -5.228 -5.07c-3.47 -2.476 -3.312 -2.6 -6.642 -4.874a37.6 37.6 0 0 1 -5.858 -4.678 0.118 0.118 0 0 0 0.04 -0.078c5.044 -7.372 13.772 -12.516 19.064 -19.81q1.71 0.058 3.42 0.236c-1.716 8.952 -3.82 25.292 -4.796 34.27Z" fill="#1c2733" stroke-width="2"></path><path d="M93.666 195.83a21.78 21.78 0 0 1 -10.85 0.2 21.062 21.062 0 0 1 -6.328 -3.43c-2.834 -1.982 -3.4 -2 -0.904 0.588A17.708 17.708 0 0 0 82 197.8a22.666 22.666 0 0 0 17.844 -1.652c6.384 -3.866 7.4 -11.676 7.352 -19.064a60.42 60.42 0 0 0 -2.516 -18.748c-1.22 -3.262 -1.69 -3.46 -1.102 -0.04a105.742 105.742 0 0 1 1.062 18.082c-0.176 9.716 -1.488 17.172 -10.974 19.452Z" fill="#1c2733" stroke-width="2"></path></svg>